# xmcd CD database file
#
# Track frame offsets:
#	150
#	27330
#	44817
#	72477
#	91292
#	113130
#	125602
#
# Disc length: 1956 seconds
#
# Revision: 0
# Processed by: cddbd v1.5.2PL0 Copyright (c) Steve Scherf et al.
# Submitted via: CDex 1.70beta2
#
DISCID=6407a207
DTITLE=Masahiko Togashi - The Face of Percussion
DYEAR=1980
DGENRE=Jazz
TTITLE0=Something Coming
TTITLE1=Pray
TTITLE2=Let's Sing, Let's Dance
TTITLE3=Ballad for Loneliness
TTITLE4=Heartstrings
TTITLE5=Whispering Stars
TTITLE6=Something Leaving
EXTD=YEAR: 1980
EXTT0=
EXTT1=
EXTT2=
EXTT3=
EXTT4=
EXTT5=
EXTT6=
PLAYORDER=
